<svg xmlns="http://www.w3.org/2000/svg" viewBox="0 0 1200 300" fill="none">
  <defs>
    <linearGradient id="bg" x1="0%" y1="0%" x2="100%" y2="100%">
      <stop offset="0%" stop-color="#0a0a0a"/>
      <stop offset="100%" stop-color="#1a1a2e"/>
    </linearGradient>
    <linearGradient id="accent" x1="0%" y1="0%" x2="100%" y2="0%">
      <stop offset="0%" stop-color="#6366f1"/>
      <stop offset="50%" stop-color="#a78bfa"/>
      <stop offset="100%" stop-color="#6366f1"/>
    </linearGradient>
    <linearGradient id="glow" x1="0%" y1="0%" x2="100%" y2="0%">
      <stop offset="0%" stop-color="#6366f1" stop-opacity="0"/>
      <stop offset="50%" stop-color="#6366f1" stop-opacity="0.15"/>
      <stop offset="100%" stop-color="#6366f1" stop-opacity="0"/>
    </linearGradient>
  </defs>

  <!-- Background -->
  <rect width="1200" height="300" rx="12" fill="url(#bg)"/>

  <!-- Subtle grid pattern -->
  <g opacity="0.04" stroke="#ffffff" stroke-width="0.5">
    <line x1="0" y1="60" x2="1200" y2="60"/>
    <line x1="0" y1="120" x2="1200" y2="120"/>
    <line x1="0" y1="180" x2="1200" y2="180"/>
    <line x1="0" y1="240" x2="1200" y2="240"/>
    <line x1="240" y1="0" x2="240" y2="300"/>
    <line x1="480" y1="0" x2="480" y2="300"/>
    <line x1="720" y1="0" x2="720" y2="300"/>
    <line x1="960" y1="0" x2="960" y2="300"/>
  </g>

  <!-- Glow effect behind text -->
  <ellipse cx="600" cy="130" rx="300" ry="80" fill="url(#glow)"/>

  <!-- Title -->
  <text x="600" y="140" text-anchor="middle" font-family="system-ui, -apple-system, sans-serif" font-size="64" font-weight="800" fill="#f1f5f9" letter-spacing="-2">open animate</text>

  <!-- Accent line -->
  <rect x="480" y="160" width="240" height="2" rx="1" fill="url(#accent)"/>

  <!-- Tagline -->
  <text x="600" y="200" text-anchor="middle" font-family="system-ui, -apple-system, sans-serif" font-size="20" font-weight="400" fill="#94a3b8">the open-source creative suite for AI agents</text>

  <!-- Pill badges -->
  <g transform="translate(365, 225)">
    <!-- Video -->
    <rect x="0" y="0" width="90" height="28" rx="14" fill="#6366f1" fill-opacity="0.15" stroke="#6366f1" stroke-opacity="0.3" stroke-width="1"/>
    <text x="45" y="18" text-anchor="middle" font-family="system-ui, -apple-system, sans-serif" font-size="12" font-weight="500" fill="#a78bfa">video</text>

    <!-- Images -->
    <rect x="105" y="0" width="90" height="28" rx="14" fill="#6366f1" fill-opacity="0.15" stroke="#6366f1" stroke-opacity="0.3" stroke-width="1"/>
    <text x="150" y="18" text-anchor="middle" font-family="system-ui, -apple-system, sans-serif" font-size="12" font-weight="500" fill="#a78bfa">images</text>

    <!-- Motion -->
    <rect x="210" y="0" width="90" height="28" rx="14" fill="#6366f1" fill-opacity="0.15" stroke="#6366f1" stroke-opacity="0.3" stroke-width="1"/>
    <text x="255" y="18" text-anchor="middle" font-family="system-ui, -apple-system, sans-serif" font-size="12" font-weight="500" fill="#a78bfa">motion</text>

    <!-- Audio -->
    <rect x="315" y="0" width="90" height="28" rx="14" fill="#6366f1" fill-opacity="0.15" stroke="#6366f1" stroke-opacity="0.3" stroke-width="1"/>
    <text x="360" y="18" text-anchor="middle" font-family="system-ui, -apple-system, sans-serif" font-size="12" font-weight="500" fill="#a78bfa">audio</text>
  </g>
</svg>
